<svg width="15" height="15" viewBox="0 0 15 15" fill="none" xmlns="http://www.w3.org/2000/svg">
<path d="M10.3346 3.9525L5.66667 8.62042L3.12375 6.08458L2.125 7.08333L5.66667 10.625L11.3333 4.95833L10.3346 3.9525ZM7.08333 0C3.17333 0 0 3.17333 0 7.08333C0 10.9933 3.17333 14.1667 7.08333 14.1667C10.9933 14.1667 14.1667 10.9933 14.1667 7.08333C14.1667 3.17333 10.9933 0 7.08333 0ZM7.08333 12.75C3.9525 12.75 1.41667 10.2142 1.41667 7.08333C1.41667 3.9525 3.9525 1.41667 7.08333 1.41667C10.2142 1.41667 12.75 3.9525 12.75 7.08333C12.75 10.2142 10.2142 12.75 7.08333 12.75Z" fill="#686868"/>
</svg>
