<svg width="40" height="40" viewBox="0 0 40 40" fill="none" xmlns="http://www.w3.org/2000/svg">
<path d="M0 20C0 8.95431 8.95431 0 20 0V0C31.0457 0 40 8.95431 40 20V20C40 31.0457 31.0457 40 20 40V40C8.95431 40 0 31.0457 0 20V20Z" fill="#F39945"/>
<path d="M20.0001 36.6665C21.8334 36.6665 23.3334 35.1665 23.3334 33.3332H16.6667C16.6667 35.1665 18.1667 36.6665 20.0001 36.6665ZM30.0001 26.6665V18.3332C30.0001 13.2165 27.2834 8.93317 22.5001 7.79984V6.6665C22.5001 5.28317 21.3834 4.1665 20.0001 4.1665C18.6167 4.1665 17.5001 5.28317 17.5001 6.6665V7.79984C12.7334 8.93317 10.0001 13.1998 10.0001 18.3332V26.6665L6.66675 29.9998V31.6665H33.3334V29.9998L30.0001 26.6665ZM26.6667 28.3332H13.3334V18.3332C13.3334 14.1998 15.8501 10.8332 20.0001 10.8332C24.1501 10.8332 26.6667 14.1998 26.6667 18.3332V28.3332Z" fill="white"/>
</svg>
