<svg width="40" height="40" viewBox="0 0 40 40" fill="none" xmlns="http://www.w3.org/2000/svg">
<path d="M0 20C0 8.95431 8.95431 0 20 0V0C31.0457 0 40 8.95431 40 20V20C40 31.0457 31.0457 40 20 40V40C8.95431 40 0 31.0457 0 20V20Z" fill="#F39945"/>
<path d="M24.8125 22.75H23.7263L23.3413 22.3787C24.6888 20.8112 25.5 18.7763 25.5 16.5625C25.5 11.6263 21.4987 7.625 16.5625 7.625C11.6263 7.625 7.625 11.6263 7.625 16.5625C7.625 21.4987 11.6263 25.5 16.5625 25.5C18.7763 25.5 20.8112 24.6888 22.3787 23.3413L22.75 23.7263V24.8125L29.625 31.6737L31.6737 29.625L24.8125 22.75V22.75ZM16.5625 22.75C13.1387 22.75 10.375 19.9863 10.375 16.5625C10.375 13.1387 13.1387 10.375 16.5625 10.375C19.9863 10.375 22.75 13.1387 22.75 16.5625C22.75 19.9863 19.9863 22.75 16.5625 22.75Z" fill="#FFFFED"/>
</svg>
