<svg width="13" height="14" viewBox="0 0 13 14" fill="none" xmlns="http://www.w3.org/2000/svg">
<path d="M13 2.92027L10.01 0.428711L9.1715 1.4163L12.1615 3.90786L13 2.92027ZM3.822 1.4163L2.99 0.428711L0 2.91382L0.8385 3.9014L3.822 1.4163ZM6.825 4.39197H5.85V8.26486L8.9375 10.1045L9.425 9.31054L6.825 7.78075V4.39197ZM6.5 1.81004C3.2695 1.81004 0.65 4.41133 0.65 7.61938C0.65 10.8274 3.263 13.4287 6.5 13.4287C9.7305 13.4287 12.35 10.8274 12.35 7.61938C12.35 4.41133 9.7305 1.81004 6.5 1.81004ZM6.5 12.1377C3.9845 12.1377 1.95 10.1174 1.95 7.61938C1.95 5.12136 3.9845 3.101 6.5 3.101C9.0155 3.101 11.05 5.12136 11.05 7.61938C11.05 10.1174 9.0155 12.1377 6.5 12.1377Z" fill="#252525"/>
</svg>
